# xmcd
#
# Track frame offsets:
#	150
#	12274
#	23963
#	36384
#	45848
#	58819
#	71108
#	84134
#	96160
#	106899
#	120128
#	133300
#	148125
#	161546
#	175582
#	187164
#	201024
#	213581
#	225789
#	238403
#	251058
#
# Disc length: 3508 seconds
#
# Revision: 0
# Processed by: cddbd v1.5.2PL0 Copyright (c) Steve Scherf et al.
# Submitted via: audiograbber 1.83.01
#
DISCID=230db215
DTITLE=Diverse - Best Of Blues 26
DYEAR=1900
DGENRE=
TTITLE0=Big Mama Thornton - Partnership Blues
TTITLE1=Big Mama Thornton - I'm All Fed Up
TTITLE2=Big Mama Thornton - Let Your Tears Fall, Baby
TTITLE3=Big Mama Thornton - They Call Me Big Mama
TTITLE4=Big Mama Thornton - Hound Dog
TTITLE5=Big Mama Thornton - I Smell A Rat
TTITLE6=Big Mama Thornton - Nightmare
TTITLE7=Sister Rosetta Tharpe - Let That Liar Alone
TTITLE8=Sister Rosetta Tharpe - Sit Down
TTITLE9=Sister Rosetta Tharpe - What's The News
TTITLE10=Sister Rosetta Tharpe - Singin' In My Soul
TTITLE11=Sister Rosetta Tharpe - The Natural Facts
TTITLE12=Sister Rosetta Tharpe - Two Little Fishes And Two Loaves Of Bread
TTITLE13=Sister Rosetta Tharpe - Nobody's Fault But Mine
TTITLE14=Sonny Terry - Bye Bye Baby Blues
TTITLE15=Sonny Terry - I Don't Care How Long
TTITLE16=Sonny Terry - Blues And Worried Man
TTITLE17=Sonny Terry - Harmonica Blues
TTITLE18=Sonny Terry - Somebody's Been Talking
TTITLE19=Sonny Terry - Harmonica Stomp
TTITLE20=Sonny Terry - Twelve Gates To The City
EXTD=
EXTT0=
EXTT1=
EXTT2=
EXTT3=
EXTT4=
EXTT5=
EXTT6=
EXTT7=
EXTT8=
EXTT9=
EXTT10=
EXTT11=
EXTT12=
EXTT13=
EXTT14=
EXTT15=
EXTT16=
EXTT17=
EXTT18=
EXTT19=
EXTT20=
PLAYORDER=
